<?xml version="1.0" encoding="UTF-8" standalone="no"?>
<!-- Created with Inkscape (http://www.inkscape.org/) -->
<svg
   xmlns:svg="http://www.w3.org/2000/svg"
   xmlns="http://www.w3.org/2000/svg"
   xmlns:xlink="http://www.w3.org/1999/xlink"
   version="1.0"
   width="200"
   height="200"
   id="svg3440">
  <defs
     id="defs3">
    <linearGradient
       id="linearGradient3101">
      <stop
         style="stop-color:#000000;stop-opacity:1"
         offset="0"
         id="stop3103" />
      <stop
         style="stop-color:#000000;stop-opacity:0"
         offset="1"
         id="stop3105" />
    </linearGradient>
    <radialGradient
       cx="17.3125"
       cy="25.53125"
       r="9.6875"
       fx="17.3125"
       fy="25.53125"
       id="radialGradient2582"
       xlink:href="#linearGradient3101"
       gradientUnits="userSpaceOnUse"
       gradientTransform="matrix(1,0,0,0.351613,87.386725,-30.171202)" />
    <linearGradient
       x1="54.509937"
       y1="41.179295"
       x2="9.5471001"
       y2="16.248501"
       id="edgeGradient"
       xlink:href="#fieldGradient"
       gradientUnits="userSpaceOnUse">
      <stop
         style="stop-color:#f98433;stop-opacity:1"
         offset="0"
         id="stop12" />
      <stop
         style="stop-color:#e37b00;stop-opacity:1"
         offset="1"
         id="stop14" />
    </linearGradient>
    <linearGradient
       x1="54.509937"
       y1="41.179295"
       x2="9.5471001"
       y2="16.248501"
       id="linearGradient2580"
       xlink:href="#edgeGradient"
       gradientUnits="userSpaceOnUse" />
    <linearGradient
       x1="52.778114"
       y1="-13.238551"
       x2="22.0144"
       y2="51.987099"
       id="fieldGradient"
       gradientUnits="userSpaceOnUse">
      <stop
         style="stop-color:#ffe1b8;stop-opacity:1"
         offset="0"
         id="stop7" />
      <stop
         style="stop-color:#ff8b00;stop-opacity:1"
         offset="1"
         id="stop9" />
    </linearGradient>
    <linearGradient
       x1="52.778114"
       y1="-13.238551"
       x2="22.0144"
       y2="51.987099"
       id="linearGradient2578"
       xlink:href="#fieldGradient"
       gradientUnits="userSpaceOnUse" />
    <radialGradient
       id="shadowGradient">
      <stop
         style="stop-color:#c0c0c0;stop-opacity:1"
         offset="0"
         id="stop17" />
      <stop
         style="stop-color:#c0c0c0;stop-opacity:1"
         offset="0.88"
         id="stop19" />
      <stop
         style="stop-color:#c0c0c0;stop-opacity:0"
         offset="1"
         id="stop21" />
    </radialGradient>
    <radialGradient
       cx="32.5"
       cy="29.5"
       r="26.5"
       fx="32.5"
       fy="29.5"
       id="radialGradient2576"
       xlink:href="#shadowGradient"
       gradientUnits="userSpaceOnUse" />
    <linearGradient
       id="linearGradient6001">
      <stop
         style="stop-color:#ffffff;stop-opacity:1"
         offset="0"
         id="stop6003" />
      <stop
         style="stop-color:#ffffff;stop-opacity:0"
         offset="1"
         id="stop6005" />
    </linearGradient>
    <linearGradient
       id="linearGradient4825">
      <stop
         style="stop-color:#ffffff;stop-opacity:1"
         offset="0"
         id="stop4827" />
      <stop
         style="stop-color:#ffffff;stop-opacity:0"
         offset="1"
         id="stop4829" />
    </linearGradient>
    <linearGradient
       id="linearGradient4126">
      <stop
         style="stop-color:#ffffff;stop-opacity:1"
         offset="0"
         id="stop4128" />
      <stop
         style="stop-color:#ffffff;stop-opacity:0.16494845"
         offset="1"
         id="stop4130" />
    </linearGradient>
    <linearGradient
       id="linearGradient4114">
      <stop
         style="stop-color:#000000;stop-opacity:1"
         offset="0"
         id="stop4116" />
      <stop
         style="stop-color:#000000;stop-opacity:0"
         offset="1"
         id="stop4118" />
    </linearGradient>
    <linearGradient
       id="linearGradient3962">
      <stop
         style="stop-color:#d3e9ff;stop-opacity:1"
         offset="0"
         id="stop3964" />
      <stop
         style="stop-color:#d3e9ff;stop-opacity:1"
         offset="0.15517241"
         id="stop4134" />
      <stop
         style="stop-color:#4074ae;stop-opacity:1"
         offset="0.75"
         id="stop4346" />
      <stop
         style="stop-color:#36486c;stop-opacity:1"
         offset="1"
         id="stop3966" />
    </linearGradient>
    <radialGradient
       cx="18.247644"
       cy="15.716079"
       r="29.993349"
       fx="18.247644"
       fy="15.716079"
       id="radialGradient3968"
       xlink:href="#linearGradient3962"
       gradientUnits="userSpaceOnUse"
       gradientTransform="matrix(4.3587763,0,0,4.2301914,-9.2955092,-11.580932)" />
    <radialGradient
       cx="15.115514"
       cy="63.965389"
       r="12.289036"
       fx="15.115514"
       fy="63.965389"
       id="radialGradient4120"
       xlink:href="#linearGradient4114"
       gradientUnits="userSpaceOnUse"
       gradientTransform="scale(1.64399,0.608276)" />
    <radialGradient
       cx="15.601279"
       cy="12.142302"
       r="43.526714"
       fx="15.601279"
       fy="12.142302"
       id="radialGradient4132"
       xlink:href="#linearGradient4126"
       gradientUnits="userSpaceOnUse"
       gradientTransform="matrix(4.3587763,0,0,4.2301914,-9.2955092,-11.580932)" />
    <radialGradient
       cx="12.071323"
       cy="12.493138"
       r="6.7175145"
       fx="12.071323"
       fy="12.493138"
       id="radialGradient5983"
       xlink:href="#linearGradient4825"
       gradientUnits="userSpaceOnUse" />
    <radialGradient
       cx="12.071323"
       cy="12.493138"
       r="6.7175145"
       fx="12.071323"
       fy="12.493138"
       id="radialGradient5985"
       xlink:href="#linearGradient4825"
       gradientUnits="userSpaceOnUse" />
    <radialGradient
       cx="12.071323"
       cy="12.493138"
       r="6.7175145"
       fx="12.071323"
       fy="12.493138"
       id="radialGradient5987"
       xlink:href="#linearGradient4825"
       gradientUnits="userSpaceOnUse" />
    <radialGradient
       cx="12.071323"
       cy="12.493138"
       r="6.7175145"
       fx="12.071323"
       fy="12.493138"
       id="radialGradient5989"
       xlink:href="#linearGradient4825"
       gradientUnits="userSpaceOnUse" />
    <linearGradient
       x1="-25.176178"
       y1="30.057165"
       x2="-22.252472"
       y2="21.041553"
       id="linearGradient6007"
       xlink:href="#linearGradient6001"
       gradientUnits="userSpaceOnUse" />
    <linearGradient
       x1="-25.176178"
       y1="30.057165"
       x2="-22.113543"
       y2="22.661524"
       id="linearGradient6011"
       xlink:href="#linearGradient6001"
       gradientUnits="userSpaceOnUse" />
    <linearGradient
       x1="-22.822565"
       y1="28.337734"
       x2="-22.113543"
       y2="22.661524"
       id="linearGradient6015"
       xlink:href="#linearGradient6001"
       gradientUnits="userSpaceOnUse" />
    <linearGradient
       x1="-21.658581"
       y1="15.649428"
       x2="-21.962101"
       y2="21.336346"
       id="linearGradient6019"
       xlink:href="#linearGradient6001"
       gradientUnits="userSpaceOnUse" />
  </defs>
  <g
     id="layer1">
    <path
       d="M 45.052803 38.908627 A 20.203051 7.4751287 0 1 1  4.6467018,38.908627 A 20.203051 7.4751287 0 1 1  45.052803 38.908627 z"
       transform="matrix(4.3588252,0,0,5.2591026,-9.2955098,-55.034721)"
       style="fill:url(#radialGradient4120);fill-opacity:1;stroke:none;stroke-opacity:1"
       id="path4112" />
    <path
       d="M 182.31779,87.766138 C 182.31779,133.06981 144.47402,169.79595 97.798658,169.79595 C 51.119016,169.79595 13.277388,133.06939 13.277388,87.766138 C 13.277388,42.46455 51.119016,5.7421533 97.798658,5.7421533 C 144.47402,5.7421533 182.31779,42.46455 182.31779,87.766138 L 182.31779,87.766138 z "
       style="fill:url(#radialGradient3968);fill-opacity:1;fill-rule:nonzero;stroke:#39396c;stroke-width:4.29400349;stroke-miterlimit:4;stroke-opacity:1"
       id="path3214" />
    <g
       transform="matrix(4.2819833,0,0,4.155572,-8.7677477,-10.595673)"
       style="opacity:1;fill:#204a87;fill-opacity:0.71345029;fill-rule:nonzero;stroke:none;stroke-miterlimit:4"
       id="g4136">
      <g
         style="fill:#204a87"
         id="g4138">
        <g
           style="fill:#204a87"
           id="g4142">
          <path
             d="M 44.0713,20.7144 C 44.0713,20.9771 44.0713,20.7144 44.0713,20.7144 L 43.5264,21.3316 C 43.1924,20.938 42.8174,20.607 42.4366,20.2613 L 41.6007,20.3843 L 40.837,19.521 L 40.837,20.5894 L 41.4913,21.0845 L 41.9268,21.5777 L 42.5088,20.9195 C 42.6553,21.1939 42.7998,21.4683 42.9453,21.7427 L 42.9453,22.565 L 42.29,23.3052 L 41.0908,24.1284 L 40.1826,25.0347 L 39.6006,24.3745 L 39.8916,23.6343 L 39.3105,22.9761 L 38.3291,20.8784 L 37.4932,19.9331 L 37.2744,20.1792 L 37.6025,21.3726 L 38.2197,22.0718 C 38.5722,23.0894 38.9209,24.062 39.3838,25.0347 C 40.1016,25.0347 40.7783,24.9585 41.4912,24.8687 L 41.4912,25.4449 L 40.6191,27.5841 L 39.8193,28.4884 L 39.165,29.8888 C 39.165,30.6564 39.165,31.424 39.165,32.1915 L 39.3838,33.0978 L 39.0205,33.508 L 38.2197,34.0021 L 37.3838,34.7013 L 38.0752,35.4826 L 37.1299,36.3068 L 37.3115,36.84 L 35.8935,38.4455 L 34.9492,38.4455 L 34.1494,38.9396 L 33.6396,38.9396 L 33.6396,38.2814 L 33.4228,36.963 C 33.1415,36.1368 32.8486,35.3165 32.5507,34.4962 C 32.5507,33.8907 32.5868,33.2911 32.623,32.6857 L 32.9873,31.8634 L 32.4775,30.8751 L 32.5146,29.5177 L 31.8232,28.7364 L 32.1689,27.6055 L 31.6064,26.9673 L 30.624,26.9673 L 30.2969,26.5972 L 29.3155,27.2149 L 28.9161,26.7613 L 28.0069,27.543 C 27.3897,26.8433 26.7715,26.1441 26.1534,25.4449 L 25.4268,23.7164 L 26.0811,22.7301 L 25.7178,22.319 L 26.5166,20.4254 C 27.1729,19.609 27.8584,18.8258 28.5518,18.0397 L 29.7881,17.7106 L 31.169,17.5465 L 32.1143,17.7936 L 33.459,19.15 L 33.9317,18.6158 L 34.585,18.5338 L 35.8213,18.9449 L 36.7666,18.9449 L 37.4209,18.3687 L 37.7119,17.9576 L 37.0566,17.5465 L 35.9658,17.4645 C 35.6631,17.0446 35.3818,16.6032 35.0224,16.2301 L 34.6581,16.3942 L 34.5126,17.4645 L 33.8583,16.7243 L 33.7138,15.9001 L 32.9872,15.3259 L 32.6952,15.3259 L 33.4227,16.1482 L 33.1317,16.8884 L 32.5506,17.0525 L 32.9139,16.3123 L 32.2586,15.9842 L 31.6785,15.326 L 30.5867,15.5721 L 30.4422,15.9002 L 29.7879,16.3123 L 29.4246,17.2176 L 28.5164,17.6697 L 28.116,17.2176 L 27.6805,17.2176 L 27.6805,15.7362 L 28.6258,15.2421 L 29.3524,15.2421 L 29.2059,14.6669 L 28.6258,14.0907 L 29.6063,13.8846 L 30.1512,13.2684 L 30.5867,12.5272 L 31.3875,12.5272 L 31.1687,11.952 L 31.6785,11.6229 L 31.6785,12.2811 L 32.7683,12.5272 L 33.8581,11.6229 L 33.9313,11.2108 L 34.8756,10.5531 C 34.5338,10.5956 34.192,10.6268 33.858,10.7177 L 33.858,9.9766 L 34.2213,9.1538 L 33.858,9.1538 L 33.0596,9.894 L 32.8408,10.3056 L 33.0596,10.8823 L 32.6953,11.8686 L 32.1142,11.5395 L 31.6064,10.9643 L 30.8056,11.5395 L 30.5146,10.2236 L 31.8955,9.3188 L 31.8955,8.8247 L 32.7685,8.249 L 34.1494,7.9194 L 35.0947,8.249 L 36.8388,8.5781 L 36.4033,9.0713 L 35.458,9.0713 L 36.4033,10.0586 L 37.1299,9.2363 L 37.3506,8.8745 C 37.3506,8.8745 40.1377,11.3725 41.7305,14.105 C 43.3233,16.8384 44.0713,20.0601 44.0713,20.7144 z "
             style="fill:#204a87"
             id="path4144" />
        </g>
      </g>
      <g
         style="fill:#204a87"
         id="g4146">
        <g
           style="fill:#204a87"
           id="g4150">
          <path
             d="M 26.0703,9.2363 L 25.9971,9.7295 L 26.5069,10.0586 L 27.378,9.4829 L 26.9425,8.9892 L 26.3605,9.3188 L 26.0705,9.2363"
             style="fill:#204a87"
             id="path4152" />
        </g>
      </g>
      <g
         style="fill:#204a87"
         id="g4154">
        <g
           style="fill:#204a87"
           id="g4158">
          <path
             d="M 26.8701,5.8633 L 24.9795,5.1226 L 22.7998,5.3692 L 20.1094,6.1094 L 19.6006,6.6035 L 21.2725,7.7549 L 21.2725,8.4131 L 20.6182,9.0713 L 21.4912,10.8003 L 22.0713,10.4702 L 22.7998,9.3188 C 23.9228,8.9716 24.9297,8.5781 25.9971,8.0844 L 26.8701,5.8632"
             style="fill:#204a87"
             id="path4160" />
        </g>
      </g>
      <g
         style="fill:#204a87"
         id="g4162">
        <g
           style="fill:#204a87"
           id="g4166">
          <path
             d="M 28.833,12.7749 L 28.542,12.0337 L 28.0322,12.1987 L 28.1787,13.103 L 28.833,12.7749"
             style="fill:#204a87"
             id="path4168" />
        </g>
      </g>
      <g
         style="fill:#204a87"
         id="g4170">
        <g
           style="fill:#204a87"
           id="g4174">
          <path
             d="M 29.123,12.6089 L 28.9775,13.5972 L 29.7773,13.4322 L 30.3584,12.857 L 29.8496,12.3629 C 29.6787,11.9078 29.4824,11.483 29.2685,11.0465 L 28.833,11.0465 L 28.833,11.5397 L 29.123,11.8688 L 29.123,12.609"
             style="fill:#204a87"
             id="path4176" />
        </g>
      </g>
      <g
         style="fill:#204a87"
         id="g4178">
        <g
           style="fill:#204a87"
           id="g4182">
          <path
             d="M 18.3652,28.2422 L 17.7832,27.0899 L 16.6929,26.8433 L 16.1114,25.2808 L 14.6578,25.4449 L 13.4224,24.5406 L 12.1133,25.692 L 12.1133,25.8736 C 11.7173,25.7593 11.2305,25.7437 10.8779,25.5269 L 10.5869,24.7046 L 10.5869,23.7993 L 9.7148,23.8813 C 9.7876,23.3051 9.8598,22.7299 9.9331,22.1538 L 9.4238,22.1538 L 8.9155,22.812 L 8.4062,23.0581 L 7.6791,22.6479 L 7.6063,21.7426 L 7.7518,20.7553 L 8.8426,19.933 L 9.7147,19.933 L 9.8597,19.4389 L 10.95,19.685 L 11.7498,20.6733 L 11.8953,19.0268 L 13.2766,17.8754 L 13.7854,16.641 L 14.803,16.2299 L 15.3845,15.4076 L 16.6926,15.1596 L 17.3474,14.1733 C 16.6931,14.1733 16.0388,14.1733 15.3845,14.1733 L 16.6203,13.5971 L 17.4919,13.5971 L 18.7282,13.185 L 18.8737,12.6928 L 18.4372,12.2807 L 17.9284,12.1157 L 18.0739,11.6225 L 17.7106,10.8823 L 16.838,11.2104 L 16.9835,10.5527 L 15.9659,9.9765 L 15.1666,11.3744 L 15.2389,11.8685 L 14.4396,12.1986 L 13.9303,13.2679 L 13.7125,12.2806 L 12.3312,11.7044 L 12.1129,10.9642 L 13.9303,9.8939 L 14.7301,9.1537 L 14.8029,8.2489 L 14.3669,8.0018 L 13.7854,7.9193 L 13.4221,8.8246 C 13.4221,8.8246 12.8142,8.9437 12.6579,8.9823 C 10.6618,10.8217 6.6286,14.7924 5.6916,22.2885 C 5.7287,22.4623 6.3708,23.4701 6.3708,23.4701 L 7.8972,24.3744 L 9.4236,24.7865 L 10.0784,25.6097 L 11.0955,26.3499 L 11.677,26.2679 L 12.113,26.4642 L 12.113,26.597 L 11.5319,28.16 L 11.0954,28.8182 L 11.2409,29.1483 L 10.8776,30.3807 L 12.1862,32.7674 L 13.4943,33.9197 L 14.0763,34.742 L 14.0031,36.4705 L 14.4396,37.4568 L 14.0031,39.3494 C 14.0031,39.3494 13.9689,39.3377 14.0246,39.5271 C 14.0808,39.7166 16.3537,40.9783 16.4982,40.8709 C 16.6422,40.7615 16.7653,40.6658 16.7653,40.6658 L 16.6203,40.2556 L 17.2014,39.6794 L 17.4197,39.1032 L 18.365,38.7731 L 19.0916,36.9626 L 18.8738,36.4704 L 19.3816,35.7302 L 20.4724,35.4822 L 21.0544,34.1658 L 20.9089,32.5213 L 21.781,31.2869 L 21.9265,30.0525 C 20.7331,29.4607 19.5495,28.8513 18.365,28.242"
             style="fill:#204a87"
             id="path4184" />
        </g>
      </g>
      <g
         style="fill:#204a87"
         id="g4186">
        <g
           style="fill:#204a87"
           id="g4190">
          <path
             d="M 16.7656,9.5649 L 17.4922,10.0586 L 18.0742,10.0586 L 18.0742,9.4829 L 17.3476,9.1538 L 16.7656,9.5649"
             style="fill:#204a87"
             id="path4192" />
        </g>
      </g>
      <g
         style="fill:#204a87"
         id="g4194">
        <g
           style="fill:#204a87"
           id="g4198">
          <path
             d="M 14.876,8.9072 L 14.5122,9.812 L 15.2393,9.812 L 15.6031,8.9892 C 15.9166,8.7675 16.2286,8.5444 16.5479,8.331 L 17.275,8.5781 C 17.7594,8.9072 18.2438,9.2363 18.7286,9.5649 L 19.4561,8.9072 L 18.6558,8.5781 L 18.292,7.8374 L 16.9111,7.6728 L 16.8383,7.2612 L 16.184,7.4262 L 15.8936,8.002 L 15.5298,7.2613 L 15.3848,7.5904 L 15.4576,8.4132 L 14.876,8.9072"
             style="fill:#204a87"
             id="path4200" />
        </g>
      </g>
      <g
         style="fill:#204a87"
         id="g4202">
        <g
           style="opacity:0.75;fill:#204a87"
           id="g4204">
          <path
             d=""
             style="fill:#204a87"
             id="path4206" />
        </g>
        <g
           style="fill:#204a87"
           id="g4208">
          <path
             d=""
             style="fill:#204a87"
             id="path4210" />
        </g>
      </g>
      <g
         style="fill:#204a87"
         id="g4212">
        <g
           style="opacity:0.75;fill:#204a87"
           id="g4214">
          <path
             d=""
             style="fill:#204a87"
             id="path4216" />
        </g>
        <g
           style="fill:#204a87"
           id="g4218">
          <path
             d=""
             style="fill:#204a87"
             id="path4220" />
        </g>
      </g>
      <g
         style="fill:#204a87"
         id="g4222">
        <g
           style="fill:#204a87"
           id="g4226">
          <path
             d="M 17.4922,6.8496 L 17.856,6.521 L 18.5831,6.3564 C 19.0811,6.1142 19.5811,5.9511 20.1095,5.7802 L 19.8195,5.2865 L 18.881,5.4213 L 18.4376,5.8632 L 17.7066,5.9692 L 17.0567,6.2744 L 16.7408,6.4272 L 16.5479,6.6855 L 17.4922,6.8496"
             style="fill:#204a87"
             id="path4228" />
        </g>
      </g>
      <g
         style="fill:#204a87"
         id="g4230">
        <g
           style="fill:#204a87"
           id="g4234">
          <path
             d="M 18.7285,14.6665 L 19.165,14.0083 L 18.5102,13.5151 L 18.7285,14.6665"
             style="fill:#204a87"
             id="path4236" />
        </g>
      </g>
    </g>
    <path
       d="M 178.02539,87.766286 C 178.02539,130.76917 142.10355,165.63017 97.79861,165.63017 C 53.489604,165.63017 17.569784,130.76878 17.569784,87.766286 C 17.569784,44.765365 53.489604,9.9079254 97.79861,9.9079254 C 142.10355,9.9079254 178.02539,44.765365 178.02539,87.766286 L 178.02539,87.766286 z "
       style="opacity:0.39560439;fill:none;fill-opacity:1;fill-rule:nonzero;stroke:url(#radialGradient4132);stroke-width:4.29400349;stroke-miterlimit:4;stroke-opacity:1"
       id="path4122" />
    <path
       d="M -2.8284283 21.041553 A 15.733126 9.4575529 0 1 1  -34.29468,21.041553 A 15.733126 9.4575529 0 1 1  -2.8284283 21.041553 z"
       transform="matrix(4.9299793,2.5934893,-2.0772237,3.7189068,226.47586,56.288997)"
       style="opacity:1;color:#000000;fill:none;fill-opacity:1;fill-rule:evenodd;stroke:url(#linearGradient6007);stroke-width:0.88164198;stroke-linecap:round;stroke-linejoin:round;marker:none;marker-start:none;marker-mid:none;marker-end:none;stroke-miterlimit:4;stroke-dasharray:none;stroke-dashoffset:0;stroke-opacity:1;visibility:visible;display:inline;overflow:visible"
       id="path5991" />
    <path
       d="M -2.8284283 21.041553 A 15.733126 9.4575529 0 1 1  -34.29468,21.041553 A 15.733126 9.4575529 0 1 1  -2.8284283 21.041553 z"
       transform="matrix(4.0943576,-3.7186613,2.9784153,3.08856,131.55582,-30.411683)"
       style="opacity:1;color:#000000;fill:none;fill-opacity:1;fill-rule:evenodd;stroke:url(#linearGradient6011);stroke-width:0.88164198;stroke-linecap:round;stroke-linejoin:round;marker:none;marker-start:none;marker-mid:none;marker-end:none;stroke-miterlimit:4;stroke-dasharray:none;stroke-dashoffset:0;stroke-opacity:1;visibility:visible;display:inline;overflow:visible"
       id="path6009" />
    <g
       transform="matrix(-4.5583368,3.2455832,3.3443127,4.4237675,145.95063,-105.25311)"
       id="g4933">
      <path
         d="M 18.788838 12.493138 A 6.7175145 6.7175145 0 1 1  5.3538089,12.493138 A 6.7175145 6.7175145 0 1 1  18.788838 12.493138 z"
         transform="translate(14.95026,22.93047)"
         style="opacity:1;color:#000000;fill:url(#radialGradient5987);fill-opacity:1;fill-rule:evenodd;stroke:none;stroke-width:1;stroke-linecap:round;stroke-linejoin:round;marker:none;marker-start:none;marker-mid:none;marker-end:none;stroke-miterlimit:4;stroke-dasharray:none;stroke-dashoffset:0;stroke-opacity:1;visibility:visible;display:inline;overflow:visible"
         id="path4935" />
      <path
         d="M 18.788838 12.493138 A 6.7175145 6.7175145 0 1 1  5.3538089,12.493138 A 6.7175145 6.7175145 0 1 1  18.788838 12.493138 z"
         transform="matrix(0.308271,0,0,0.308271,23.30035,31.57234)"
         style="opacity:1;color:#000000;fill:#ffffff;fill-opacity:1;fill-rule:evenodd;stroke:none;stroke-width:1;stroke-linecap:round;stroke-linejoin:round;marker:none;marker-start:none;marker-mid:none;marker-end:none;stroke-miterlimit:4;stroke-dasharray:none;stroke-dashoffset:0;stroke-opacity:1;visibility:visible;display:inline;overflow:visible"
         id="path4937" />
    </g>
    <path
       d="M -2.8284283 21.041553 A 15.733126 9.4575529 0 1 1  -34.29468,21.041553 A 15.733126 9.4575529 0 1 1  -2.8284283 21.041553 z"
       transform="matrix(-5.5806729,-0.5336709,0.4274361,-4.2097558,-19.779028,159.84091)"
       style="opacity:1;color:#000000;fill:none;fill-opacity:1;fill-rule:evenodd;stroke:url(#linearGradient6015);stroke-width:0.88164198;stroke-linecap:round;stroke-linejoin:round;marker:none;marker-start:none;marker-mid:none;marker-end:none;stroke-miterlimit:4;stroke-dasharray:none;stroke-dashoffset:0;stroke-opacity:1;visibility:visible;display:inline;overflow:visible"
       id="path6013" />
    <path
       d="M -2.8284283 21.041553 A 15.733126 9.4575529 0 1 1  -34.29468,21.041553 A 15.733126 9.4575529 0 1 1  -2.8284283 21.041553 z"
       transform="matrix(4.0008518,-3.633623,2.9103916,3.0179253,111.15263,-40.807299)"
       style="opacity:1;color:#000000;fill:none;fill-opacity:1;fill-rule:evenodd;stroke:url(#linearGradient6019);stroke-width:0.90226138;stroke-linecap:round;stroke-linejoin:round;marker:none;marker-start:none;marker-mid:none;marker-end:none;stroke-miterlimit:4;stroke-dasharray:none;stroke-dashoffset:0;stroke-opacity:1;visibility:visible;display:inline;overflow:visible"
       id="path6017" />
    <g
       transform="matrix(-3.5144155,2.5022999,2.5784194,3.4106648,44.691323,-87.847109)"
       id="g5075">
      <path
         d="M 18.788838 12.493138 A 6.7175145 6.7175145 0 1 1  5.3538089,12.493138 A 6.7175145 6.7175145 0 1 1  18.788838 12.493138 z"
         transform="translate(14.95026,22.93047)"
         style="opacity:1;color:#000000;fill:url(#radialGradient5983);fill-opacity:1;fill-rule:evenodd;stroke:none;stroke-width:1;stroke-linecap:round;stroke-linejoin:round;marker:none;marker-start:none;marker-mid:none;marker-end:none;stroke-miterlimit:4;stroke-dasharray:none;stroke-dashoffset:0;stroke-opacity:1;visibility:visible;display:inline;overflow:visible"
         id="path5077" />
      <path
         d="M 18.788838 12.493138 A 6.7175145 6.7175145 0 1 1  5.3538089,12.493138 A 6.7175145 6.7175145 0 1 1  18.788838 12.493138 z"
         transform="matrix(0.308271,0,0,0.308271,23.30035,31.57234)"
         style="opacity:1;color:#000000;fill:#ffffff;fill-opacity:1;fill-rule:evenodd;stroke:none;stroke-width:1;stroke-linecap:round;stroke-linejoin:round;marker:none;marker-start:none;marker-mid:none;marker-end:none;stroke-miterlimit:4;stroke-dasharray:none;stroke-dashoffset:0;stroke-opacity:1;visibility:visible;display:inline;overflow:visible"
         id="path5079" />
    </g>
    <g
       transform="matrix(-3.5144155,2.5022999,2.5784194,3.4106648,49.544701,-144.83145)"
       id="g4945">
      <path
         d="M 18.788838 12.493138 A 6.7175145 6.7175145 0 1 1  5.3538089,12.493138 A 6.7175145 6.7175145 0 1 1  18.788838 12.493138 z"
         transform="translate(14.95026,22.93047)"
         style="opacity:1;color:#000000;fill:url(#radialGradient5985);fill-opacity:1;fill-rule:evenodd;stroke:none;stroke-width:1;stroke-linecap:round;stroke-linejoin:round;marker:none;marker-start:none;marker-mid:none;marker-end:none;stroke-miterlimit:4;stroke-dasharray:none;stroke-dashoffset:0;stroke-opacity:1;visibility:visible;display:inline;overflow:visible"
         id="path4947" />
      <path
         d="M 18.788838 12.493138 A 6.7175145 6.7175145 0 1 1  5.3538089,12.493138 A 6.7175145 6.7175145 0 1 1  18.788838 12.493138 z"
         transform="matrix(0.308271,0,0,0.308271,23.30035,31.57234)"
         style="opacity:1;color:#000000;fill:#ffffff;fill-opacity:1;fill-rule:evenodd;stroke:none;stroke-width:1;stroke-linecap:round;stroke-linejoin:round;marker:none;marker-start:none;marker-mid:none;marker-end:none;stroke-miterlimit:4;stroke-dasharray:none;stroke-dashoffset:0;stroke-opacity:1;visibility:visible;display:inline;overflow:visible"
         id="path4949" />
    </g>
    <g
       transform="matrix(-3.793167,2.7012522,2.7829267,3.681838,100.5688,-160.95913)"
       style="opacity:1"
       id="g4939">
      <path
         d="M 18.788838 12.493138 A 6.7175145 6.7175145 0 1 1  5.3538089,12.493138 A 6.7175145 6.7175145 0 1 1  18.788838 12.493138 z"
         transform="translate(14.95026,22.93047)"
         style="opacity:1;color:#000000;fill:url(#radialGradient5989);fill-opacity:1;fill-rule:evenodd;stroke:none;stroke-width:1;stroke-linecap:round;stroke-linejoin:round;marker:none;marker-start:none;marker-mid:none;marker-end:none;stroke-miterlimit:4;stroke-dasharray:none;stroke-dashoffset:0;stroke-opacity:1;visibility:visible;display:inline;overflow:visible"
         id="path4941" />
      <path
         d="M 18.788838 12.493138 A 6.7175145 6.7175145 0 1 1  5.3538089,12.493138 A 6.7175145 6.7175145 0 1 1  18.788838 12.493138 z"
         transform="matrix(0.308271,0,0,0.308271,23.30035,31.57234)"
         style="opacity:1;color:#000000;fill:#ffffff;fill-opacity:1;fill-rule:evenodd;stroke:none;stroke-width:1;stroke-linecap:round;stroke-linejoin:round;marker:none;marker-start:none;marker-mid:none;marker-end:none;stroke-miterlimit:4;stroke-dasharray:none;stroke-dashoffset:0;stroke-opacity:1;visibility:visible;display:inline;overflow:visible"
         id="path4943" />
    </g>
    <g
       transform="matrix(1.5343992,0,0,1.4891012,-30.406163,159.06366)"
       id="g2568">
      <circle
         cx="32.5"
         cy="29.5"
         r="26.5"
         transform="matrix(1.0648,0,0,1.064822,85.286725,-45.638932)"
         style="fill:url(#radialGradient2576);stroke:none"
         id="circle2507" />
      <circle
         cx="31"
         cy="31"
         r="25.799999"
         transform="translate(87.386725,-46.725332)"
         style="fill:url(#linearGradient2578);fill-opacity:1;stroke:url(#linearGradient2580);stroke-width:2"
         id="circle2509" />
      <path
         d="M 139.5398,1.649199 C 139.5398,5.669807 130.2701,8.929153 118.83535,8.929153 C 107.40059,8.929153 98.130893,5.669807 98.130893,1.649199 C 98.130893,-2.371408 107.40059,-5.630755 118.83535,-5.630755 C 130.2701,-5.630755 139.5398,-2.371408 139.5398,1.649199 z "
         style="opacity:0.40909089;color:#000000;fill:url(#radialGradient2582);fill-opacity:1;fill-rule:nonzero;stroke:none;stroke-width:1.10533953;stroke-linecap:butt;stroke-linejoin:miter;marker:none;marker-start:none;marker-mid:none;marker-end:none;stroke-miterlimit:4;stroke-dasharray:none;stroke-dashoffset:0;stroke-opacity:1;visibility:visible;display:inline;overflow:visible"
         id="path2511" />
      <g
         transform="matrix(1.493666,0,0,1.493666,-58.658424,-4.4819926)"
         id="g2561">
        <path
           d="M 118.95834,-1.3076619 L 118.01148,-1.3076619 C 117.30351,-6.193883 116.23136,-11.061489 115.66924,-15.955634 C 115.66347,-17.613088 116.34723,-18.254019 118.50982,-18.245924 C 120.64304,-18.237939 121.30685,-17.565968 121.30057,-15.757911 C 120.71714,-10.932694 119.77837,-6.1193846 118.95834,-1.3076619 z "
           style="font-size:32px;font-style:normal;font-weight:normal;fill:#ffffff;fill-opacity:1;stroke:none;stroke-width:1px;stroke-linecap:butt;stroke-linejoin:miter;stroke-opacity:1;font-family:Bitstream Vera Sans"
           id="text6373" />
        <path
           d="M 120.09165,1.8173746 C 120.09165,2.7468724 119.37928,3.5003791 118.50052,3.5003791 C 117.62176,3.5003791 116.90939,2.7468724 116.90939,1.8173746 C 116.90939,0.88787634 117.62176,0.1343702 118.50052,0.1343702 C 119.37928,0.1343702 120.09165,0.88787634 120.09165,1.8173746 L 120.09165,1.8173746 z "
           style="fill:#ffffff;fill-opacity:1;stroke:none;stroke-width:4;stroke-linecap:round;stroke-linejoin:round"
           id="path6380" />
      </g>
    </g>
  </g>
</svg>
